<svg width="29" height="26" viewBox="0 0 29 26" fill="none" xmlns="http://www.w3.org/2000/svg">
<path d="M2 13L1.27801 12.3081L0.614936 13L1.27801 13.6919L2 13ZM28 14C28.5523 14 29 13.5523 29 13C29 12.4477 28.5523 12 28 12V14ZM12.778 25.6919C13.1601 26.0906 13.7932 26.1041 14.1919 25.722C14.5906 25.3399 14.6041 24.7068 14.222 24.3081L12.778 25.6919ZM14.222 1.69191C14.6041 1.29316 14.5906 0.660141 14.1919 0.278012C13.7932 -0.104117 13.1601 -0.0906484 12.778 0.308095L14.222 1.69191ZM2 14H28V12H2V14ZM1.27801 13.6919L12.778 25.6919L14.222 24.3081L2.72199 12.3081L1.27801 13.6919ZM12.778 0.308095L1.27801 12.3081L2.72199 13.6919L14.222 1.69191L12.778 0.308095Z" fill="#D1D5DB" fillOpacity="0.3"/>
</svg>
