<svg width="11" height="12" viewBox="0 0 11 12" fill="none" xmlns="http://www.w3.org/2000/svg">
<path d="M4.29297 11.0371C4.64062 11.0371 4.9082 10.8945 5.0957 10.6094L10.5801 2.125C10.6465 2.02344 10.6953 1.92578 10.7266 1.83203C10.7578 1.73828 10.7734 1.64453 10.7734 1.55078C10.7734 1.32031 10.6973 1.13086 10.5449 0.982422C10.3926 0.833984 10.1973 0.759766 9.95898 0.759766C9.79492 0.759766 9.6582 0.792969 9.54883 0.859375C9.43945 0.921875 9.33398 1.03125 9.23242 1.1875L4.26953 9.05078L1.72656 5.82812C1.54297 5.59766 1.31641 5.48242 1.04688 5.48242C0.808594 5.48242 0.611328 5.55859 0.455078 5.71094C0.298828 5.86328 0.220703 6.05664 0.220703 6.29102C0.220703 6.39648 0.238281 6.49805 0.273438 6.5957C0.3125 6.69336 0.375 6.79297 0.460938 6.89453L3.49609 10.6328C3.71484 10.9023 3.98047 11.0371 4.29297 11.0371Z" fill="#B6B6B6"/>
</svg>
