<svg width="11" height="11" viewBox="0 0 11 11" fill="none" xmlns="http://www.w3.org/2000/svg">
<path d="M0.941406 10.334C1.03906 10.4316 1.15234 10.4961 1.28125 10.5273C1.41406 10.5586 1.54492 10.5586 1.67383 10.5273C1.80273 10.4961 1.91406 10.4336 2.00781 10.3398L5.5 6.84766L8.99219 10.3398C9.08594 10.4336 9.19727 10.4961 9.32617 10.5273C9.45508 10.5586 9.58398 10.5586 9.71289 10.5273C9.8418 10.4961 9.95508 10.4316 10.0527 10.334C10.1504 10.2363 10.2148 10.123 10.2461 9.99414C10.2773 9.86523 10.2773 9.73633 10.2461 9.60742C10.2148 9.47852 10.1523 9.36719 10.0586 9.27344L6.57227 5.77539L10.0586 2.2832C10.1523 2.18945 10.2148 2.07812 10.2461 1.94922C10.2812 1.82031 10.2812 1.69141 10.2461 1.5625C10.2148 1.43359 10.1504 1.32227 10.0527 1.22852C9.95508 1.12695 9.8418 1.06055 9.71289 1.0293C9.58398 0.998047 9.45508 0.998047 9.32617 1.0293C9.19727 1.06055 9.08594 1.12305 8.99219 1.2168L5.5 4.70898L2.00781 1.2168C1.91406 1.12305 1.80078 1.06055 1.66797 1.0293C1.53906 0.998047 1.4082 0.998047 1.27539 1.0293C1.14648 1.06055 1.03516 1.125 0.941406 1.22266C0.84375 1.32031 0.779297 1.43359 0.748047 1.5625C0.720703 1.69141 0.720703 1.82227 0.748047 1.95508C0.779297 2.08398 0.841797 2.19336 0.935547 2.2832L4.42773 5.77539L0.935547 9.27344C0.841797 9.36719 0.779297 9.47852 0.748047 9.60742C0.716797 9.73633 0.716797 9.86523 0.748047 9.99414C0.779297 10.123 0.84375 10.2363 0.941406 10.334Z" fill="#B6B6B6"/>
</svg>
