<svg width="73" height="73" viewBox="0 0 73 73" fill="none" xmlns="http://www.w3.org/2000/svg">
<g clip-path="url(#clip0_484_4627)">
<path d="M62.5844 12.0044C68.5961 18.4074 72.2843 27.0243 72.2843 36.4999C72.2843 56.2624 56.2625 72.2843 36.5 72.2843" stroke="white" stroke-width="1.5" stroke-linecap="round" stroke-linejoin="round"/>
<path d="M54.2871 5.44385C55.0696 5.89234 55.8378 6.37424 56.5821 6.87999" stroke="white" stroke-width="1.5" stroke-linecap="round" stroke-linejoin="round"/>
<path d="M0.71582 36.5001C0.71582 16.7377 16.7377 0.71582 36.5001 0.71582" stroke="white" stroke-width="1.5" stroke-linecap="round" stroke-linejoin="round"/>
<path d="M35.7894 37.0869L32.3207 38.9095C31.209 39.4916 29.9112 38.5517 30.1259 37.3159L30.7891 33.456C30.875 32.9646 30.7128 32.4636 30.3549 32.1153L27.5495 29.3814C26.6525 28.5035 27.1487 26.9814 28.3892 26.8001L32.2634 26.2371C32.7549 26.1656 33.1843 25.8554 33.4038 25.4069L35.1357 21.8953C35.6892 20.7693 37.2971 20.7693 37.8506 21.8953L39.5825 25.4069C39.802 25.8554 40.2314 26.1656 40.7229 26.2371L44.5971 26.8001C45.8376 26.9814 46.3338 28.5082 45.4368 29.3814L42.6314 32.1153C42.2735 32.4636 42.1113 32.9646 42.1972 33.456L42.8604 37.3159C43.0703 38.5517 41.7725 39.4964 40.6656 38.9095L37.1969 37.0869C36.758 36.8531 36.2284 36.8531 35.7894 37.0869V37.0869Z" stroke="white" stroke-width="1.5" stroke-linecap="round" stroke-linejoin="round"/>
<path d="M51.8441 18.8941C52.6981 19.4046 53.5235 19.939 53.9911 20.7454C54.8356 22.2054 54.2869 24.2904 54.7354 25.9556C55.1648 27.5682 56.6964 29.095 56.6964 30.8413C56.6964 32.5876 55.1696 34.1144 54.7354 35.7271C54.2917 37.397 54.8356 39.4773 53.9911 40.9373C53.1323 42.4211 51.0473 42.9794 49.8449 44.1817C48.6426 45.3841 48.0795 47.4691 46.6005 48.3279C45.1214 49.1867 43.0554 48.6237 41.3903 49.0722C39.7776 49.5016 38.2508 51.0332 36.5045 51.0332C34.7582 51.0332 33.2314 49.5064 31.6188 49.0722C29.9488 48.6285 27.8686 49.1724 26.4086 48.3279C24.9247 47.4691 24.3665 45.3841 23.1641 44.1817C21.9618 42.9794 19.8767 42.4163 19.0179 40.9373C18.412 39.8924 18.5217 38.5326 18.4692 37.2348C18.4501 36.7147 18.4024 36.2042 18.2736 35.7271C18.1639 35.3215 17.9873 34.9255 17.7869 34.5295C17.1762 33.3367 16.3174 32.1534 16.3174 30.8413C16.3174 29.0903 17.8442 27.5682 18.2784 25.9556C18.7221 24.2856 18.1782 22.2054 19.0227 20.7454C19.8815 19.2615 21.9665 18.7033 23.1689 17.5009C24.3712 16.2986 24.9342 14.2135 26.4133 13.3547C27.8733 12.5102 29.9584 13.0589 31.6235 12.6104C33.2362 12.181 34.763 10.6494 36.5093 10.6494C38.2556 10.6494 39.7824 12.1762 41.395 12.6104C43.0077 13.0446 45.1452 12.5102 46.6052 13.3547C47.5595 13.9082 48.132 14.9722 48.7427 15.9789" stroke="white" stroke-width="1.5" stroke-linecap="round" stroke-linejoin="round"/>
<path d="M37.5068 15.5254C38.4802 15.5874 39.4249 15.7401 40.3362 15.9739" stroke="white" stroke-width="1.5" stroke-linecap="round" stroke-linejoin="round"/>
<path d="M21.1514 30.8414C21.1514 23.5987 26.1659 17.5297 32.9125 15.917" stroke="white" stroke-width="1.5" stroke-linecap="round" stroke-linejoin="round"/>
<path d="M46.8775 42.1445C44.1435 44.6542 40.4983 46.1858 36.5 46.1858" stroke="white" stroke-width="1.5" stroke-linecap="round" stroke-linejoin="round"/>
<path d="M25.2254 55.8521L16.6133 53.9245L21.1507 46.0615" stroke="white" stroke-width="1.5" stroke-linecap="round" stroke-linejoin="round"/>
<path d="M31.1944 62.3505L25.2256 55.8521" stroke="white" stroke-width="1.5" stroke-linecap="round" stroke-linejoin="round"/>
<path d="M52.1114 46.5195L56.3864 53.9245L47.7743 55.8521L41.8055 62.3505L38.4561 56.5391" stroke="white" stroke-width="1.5" stroke-linecap="round" stroke-linejoin="round"/>
</g>
<defs>
<clipPath id="clip0_484_4627">
<rect width="73" height="73" fill="white"/>
</clipPath>
</defs>
</svg>
