<svg width="73" height="73" viewBox="0 0 73 73" fill="none" xmlns="http://www.w3.org/2000/svg">
<g clip-path="url(#clip0_311_1546)">
<path d="M53.0131 44.3586C49.0005 43.7574 45.9326 40.2983 45.9326 36.1187H62.5938C62.5938 37.6359 62.1882 39.0625 61.4821 40.2887" stroke="white" stroke-width="1.5" stroke-linecap="round" stroke-linejoin="round"/>
<path d="M57.4026 43.8384C57.2022 43.9195 56.997 43.9958 56.7871 44.0626" stroke="white" stroke-width="1.5" stroke-linecap="round" stroke-linejoin="round"/>
<path d="M22.5441 18.2217L25.1922 24.1905L27.8402 30.1546H22.5441H17.248L19.8961 24.1905L22.5441 18.2217Z" stroke="white" stroke-width="1.5" stroke-linecap="round" stroke-linejoin="round"/>
<path d="M54.258 24.1904L56.906 30.1545L59.5541 36.1185H54.258H48.9619L51.61 30.1545L54.258 24.1904Z" stroke="white" stroke-width="1.5" stroke-linecap="round" stroke-linejoin="round"/>
<path d="M32.9645 13.2834L52.0495 17.3438C54.2729 17.8161 55.6947 20.0061 55.2272 22.2391C54.8121 24.1762 53.0992 25.5026 51.1859 25.5026C50.9044 25.5026 50.6181 25.4787 50.3319 25.4167L41.5432 23.5464L36.0229 22.3774L25.3926 20.1159C23.1692 19.6435 21.7474 17.4535 22.2149 15.2301C22.6205 13.2882 24.3429 11.957 26.2562 11.957C26.5377 11.957 26.824 11.9809 27.1102 12.0429" stroke="white" stroke-width="1.5" stroke-linecap="round" stroke-linejoin="round"/>
<path d="M29.9541 12.644L30.1927 12.6965" stroke="white" stroke-width="1.5" stroke-linecap="round" stroke-linejoin="round"/>
<path d="M38.7184 20.4978C39.696 20.4978 40.4885 19.7053 40.4885 18.7276C40.4885 17.75 39.696 16.9575 38.7184 16.9575C37.7408 16.9575 36.9482 17.75 36.9482 18.7276C36.9482 19.7053 37.7408 20.4978 38.7184 20.4978Z" stroke="white" stroke-width="1.5" stroke-linecap="round" stroke-linejoin="round"/>
<path d="M35.1445 40.4985L35.8316 25.5024" stroke="white" stroke-width="1.5" stroke-linecap="round" stroke-linejoin="round"/>
<path d="M33.2549 59.6597H30.459" stroke="white" stroke-width="1.5" stroke-linecap="round" stroke-linejoin="round"/>
<path d="M41.7237 26.6382L42.9118 53.0088H47.2393C50.9132 53.0088 53.8904 55.9861 53.8904 59.6599H37.6777" stroke="white" stroke-width="1.5" stroke-linecap="round" stroke-linejoin="round"/>
<path d="M16.1357 35.4795C14.9381 34.0338 14.2129 32.1778 14.2129 30.1548H30.8741" stroke="white" stroke-width="1.5" stroke-linecap="round" stroke-linejoin="round"/>
<path d="M62.5844 12.0044C68.5961 18.4074 72.2843 27.0243 72.2843 36.5C72.2843 56.2624 56.2625 72.2843 36.5 72.2843" stroke="white" stroke-width="1.5" stroke-linecap="round" stroke-linejoin="round"/>
<path d="M54.2871 5.44385C55.0696 5.89234 55.8378 6.37424 56.5821 6.87999" stroke="white" stroke-width="1.5" stroke-linecap="round" stroke-linejoin="round"/>
<path d="M0.71582 36.5001C0.71582 16.7377 16.7377 0.71582 36.5001 0.71582" stroke="white" stroke-width="1.5" stroke-linecap="round" stroke-linejoin="round"/>
<path d="M23.6801 58.3045C30.6367 58.3045 36.2761 52.665 36.2761 45.7084C36.2761 38.7518 30.6367 33.1123 23.6801 33.1123C16.7234 33.1123 11.084 38.7518 11.084 45.7084C11.084 52.665 16.7234 58.3045 23.6801 58.3045Z" stroke="white" stroke-width="1.5" stroke-linecap="round" stroke-linejoin="round"/>
<path d="M20.2725 42.9174C20.2725 41.0375 21.7993 39.5107 23.6791 39.5107C25.559 39.5107 27.0858 41.0375 27.0858 42.9174C27.0858 44.7973 25.559 46.3241 23.6791 46.3241V48.5522" stroke="white" stroke-width="1.5" stroke-linecap="round" stroke-linejoin="round"/>
<path d="M23.6787 51.2573V51.911" stroke="white" stroke-width="1.5" stroke-linecap="round" stroke-linejoin="round"/>
</g>
<defs>
<clipPath id="clip0_311_1546">
<rect width="73" height="73" fill="white"/>
</clipPath>
</defs>
</svg>
