<svg width="106" height="106" viewBox="0 0 106 106" fill="none" xmlns="http://www.w3.org/2000/svg">
<g opacity="0.5" clip-path="url(#clip0_139_1164)">
<path d="M76.7801 63.8593C71.0001 62.9893 66.5801 58.0093 66.5801 51.9893H90.5801C90.5801 54.1793 90.0001 56.2293 88.9801 57.9893" stroke="white" stroke-width="2" stroke-linecap="round" stroke-linejoin="round"/>
<path d="M83.1097 63.1094C82.8197 63.2294 82.5297 63.3294 82.2197 63.4294" stroke="white" stroke-width="2" stroke-linecap="round" stroke-linejoin="round"/>
<path d="M32.9 26.2197L36.72 34.8097L40.53 43.3997H32.9H25.27L29.09 34.8097L32.9 26.2197Z" stroke="white" stroke-width="2" stroke-linecap="round" stroke-linejoin="round"/>
<path d="M78.5797 34.8096L82.3997 43.3996L86.2097 51.9896H78.5797H70.9497L74.7697 43.3996L78.5797 34.8096Z" stroke="white" stroke-width="2" stroke-linecap="round" stroke-linejoin="round"/>
<path d="M47.9101 19.0997L75.4001 24.9497C78.6001 25.6297 80.6501 28.7897 79.9701 31.9997C79.3701 34.7897 76.9101 36.6997 74.1501 36.6997C73.7501 36.6997 73.3301 36.6697 72.9201 36.5697L60.2601 33.8697L52.3101 32.1897L37.0001 28.9297C33.8001 28.2497 31.7501 25.0897 32.4301 21.8897C33.0201 19.0897 35.4901 17.1797 38.2501 17.1797C38.6501 17.1797 39.0701 17.2097 39.4801 17.3097" stroke="white" stroke-width="2" stroke-linecap="round" stroke-linejoin="round"/>
<path d="M43.5703 18.1797L43.9203 18.2597" stroke="white" stroke-width="2" stroke-linecap="round" stroke-linejoin="round"/>
<path d="M56.1999 29.4896C57.6082 29.4896 58.7499 28.348 58.7499 26.9396C58.7499 25.5313 57.6082 24.3896 56.1999 24.3896C54.7916 24.3896 53.6499 25.5313 53.6499 26.9396C53.6499 28.348 54.7916 29.4896 56.1999 29.4896Z" stroke="white" stroke-width="2" stroke-linecap="round" stroke-linejoin="round"/>
<path d="M51.0498 58.2992L52.0398 36.6992" stroke="white" stroke-width="2" stroke-linecap="round" stroke-linejoin="round"/>
<path d="M48.3298 85.8994H44.2998" stroke="white" stroke-width="2" stroke-linecap="round" stroke-linejoin="round"/>
<path d="M60.5297 38.3398L62.2397 76.3198H68.4697C73.7597 76.3198 78.0497 80.6098 78.0497 85.8998H54.6997" stroke="white" stroke-width="2" stroke-linecap="round" stroke-linejoin="round"/>
<path d="M23.6699 51.0694C21.9399 48.9894 20.8999 46.3194 20.8999 43.3994H44.8999" stroke="white" stroke-width="2" stroke-linecap="round" stroke-linejoin="round"/>
<path d="M90.5798 17.2598C99.2398 26.4798 104.55 38.8898 104.55 52.5398C104.55 81.0098 81.4698 104.08 53.0098 104.08" stroke="white" stroke-width="2" stroke-linecap="round" stroke-linejoin="round"/>
<path d="M78.6201 7.80957C79.7501 8.45957 80.8501 9.14957 81.9301 9.87957" stroke="white" stroke-width="2" stroke-linecap="round" stroke-linejoin="round"/>
<path d="M1.45996 52.54C1.45996 24.08 24.54 1 53 1" stroke="white" stroke-width="2" stroke-linecap="round" stroke-linejoin="round"/>
<path d="M34.5299 83.9602C44.5539 83.9602 52.6799 75.8341 52.6799 65.8102C52.6799 55.7862 44.5539 47.6602 34.5299 47.6602C24.5059 47.6602 16.3799 55.7862 16.3799 65.8102C16.3799 75.8341 24.5059 83.9602 34.5299 83.9602Z" stroke="white" stroke-width="2" stroke-linecap="round" stroke-linejoin="round"/>
<path d="M29.6299 61.7801C29.6299 59.0701 31.8299 56.8701 34.5399 56.8701C37.2499 56.8701 39.4499 59.0701 39.4499 61.7801C39.4499 64.4901 37.2499 66.6901 34.5399 66.6901V69.9001" stroke="white" stroke-width="2" stroke-linecap="round" stroke-linejoin="round"/>
<path d="M34.5298 73.7998V74.7398" stroke="white" stroke-width="2" stroke-linecap="round" stroke-linejoin="round"/>
</g>
<defs>
<clipPath id="clip0_139_1164">
<rect width="105.08" height="105.08" fill="white" transform="translate(0.459961)"/>
</clipPath>
</defs>
</svg>
