<svg width="73" height="73" viewBox="0 0 73 73" fill="none" xmlns="http://www.w3.org/2000/svg">
<g clip-path="url(#clip0_484_4661)">
<path d="M62.5844 12.0046C68.5961 18.4076 72.2843 27.0245 72.2843 36.5002C72.2843 56.2627 56.2625 72.2845 36.5 72.2845" stroke="white" stroke-width="1.5" stroke-linecap="round" stroke-linejoin="round"/>
<path d="M54.2871 5.44409C55.0696 5.89259 55.8378 6.37448 56.5821 6.88024" stroke="white" stroke-width="1.5" stroke-linecap="round" stroke-linejoin="round"/>
<path d="M5.23896 53.8768C2.35713 48.719 0.71582 42.7693 0.71582 36.4379V36.4999C0.71582 16.7374 16.7377 0.715576 36.5001 0.715576" stroke="white" stroke-width="1.5" stroke-linecap="round" stroke-linejoin="round"/>
<path d="M17.6967 66.9118C15.7453 65.7047 13.9226 64.3163 12.2432 62.7656" stroke="white" stroke-width="1.5" stroke-linecap="round" stroke-linejoin="round"/>
<path d="M17.0908 44.2011C17.0908 44.2011 21.3229 45.4083 25.8222 42.9034C30.3167 40.3984 32.1727 36.9918 32.1727 36.9918L39.3868 37.0395C41.0472 37.049 42.4166 35.7322 42.4738 34.0718C42.5263 32.3828 41.2047 30.9657 39.5157 30.9084L29.7919 30.5745" stroke="white" stroke-width="1.5" stroke-linecap="round" stroke-linejoin="round"/>
<path d="M18.4932 28.017L23.2215 24.596C23.2215 24.596 26.9526 21.9957 31.3898 21.948C35.8271 21.9003 49.3917 21.948 49.3917 21.948" stroke="white" stroke-width="1.5" stroke-linecap="round" stroke-linejoin="round"/>
<path d="M15.9219 29.8776L16.3561 29.5627" stroke="white" stroke-width="1.5" stroke-linecap="round" stroke-linejoin="round"/>
<path d="M36.6862 30.8129C37.7931 27.9024 39.8972 25.3546 42.8268 23.7181C49.4493 20.0299 57.8085 22.4107 61.4967 29.0332C65.1848 35.6557 62.804 44.0149 56.1815 47.7031C49.559 51.3913 41.1998 49.0104 37.5116 42.3832C36.5574 40.6703 36.0135 38.8429 35.8369 37.0155" stroke="white" stroke-width="1.5" stroke-linecap="round" stroke-linejoin="round"/>
<path d="M52.941 26.1658C50.2787 25.2115 47.2346 25.3642 44.5723 26.8481" stroke="white" stroke-width="1.5" stroke-linecap="round" stroke-linejoin="round"/>
<path d="M58.3709 30.7795C57.7984 29.749 57.0684 28.8567 56.2334 28.1172" stroke="white" stroke-width="1.5" stroke-linecap="round" stroke-linejoin="round"/>
<path d="M40.6406 40.6514C43.365 45.5467 49.5438 47.3073 54.4391 44.5829" stroke="white" stroke-width="1.5" stroke-linecap="round" stroke-linejoin="round"/>
<path d="M49.5063 35.7128C48.2133 35.7032 47.1731 34.644 47.1827 33.351C47.1922 32.058 48.2514 31.0179 49.5444 31.0274C50.8375 31.037 51.8776 32.0962 51.868 33.3892" stroke="white" stroke-width="1.5" stroke-linecap="round" stroke-linejoin="round"/>
<path d="M49.5064 35.7124C50.7994 35.7219 51.8395 36.7812 51.83 38.0742C51.8204 39.3672 50.7612 40.4073 49.4682 40.3978C48.1752 40.3882 47.1351 39.329 47.1446 38.036" stroke="white" stroke-width="1.5" stroke-linecap="round" stroke-linejoin="round"/>
<path d="M49.5535 29.844L49.5439 31.0273" stroke="white" stroke-width="1.5" stroke-linecap="round" stroke-linejoin="round"/>
<path d="M49.4675 40.3979L49.458 41.5812" stroke="white" stroke-width="1.5" stroke-linecap="round" stroke-linejoin="round"/>
<path d="M14.9717 56.1196C20.2964 61.9596 27.9733 65.6287 36.4995 65.6287" stroke="white" stroke-width="1.5" stroke-linecap="round" stroke-linejoin="round"/>
<path d="M51.8296 11.7277C47.378 8.96518 42.1249 7.37158 36.4996 7.37158C29.753 7.37158 23.5457 9.66655 18.6074 13.5122" stroke="white" stroke-width="1.5" stroke-linecap="round" stroke-linejoin="round"/>
</g>
<defs>
<clipPath id="clip0_484_4661">
<rect width="73" height="73" fill="white"/>
</clipPath>
</defs>
</svg>
