<svg width="73" height="73" viewBox="0 0 73 73" fill="none" xmlns="http://www.w3.org/2000/svg">
<g clip-path="url(#clip0_311_1519)">
<path d="M51.8819 23.6891V18.3739C51.8819 16.5322 50.3885 15.0388 48.5468 15.0388H19.7285" stroke="white" stroke-width="1.5" stroke-linecap="round" stroke-linejoin="round"/>
<path d="M51.8818 32.4395V31.0654" stroke="white" stroke-width="1.5" stroke-linecap="round" stroke-linejoin="round"/>
<path d="M51.8818 52.8414V35.9941" stroke="white" stroke-width="1.5" stroke-linecap="round" stroke-linejoin="round"/>
<path d="M33.3652 56.916H48.5473" stroke="white" stroke-width="1.5" stroke-linecap="round" stroke-linejoin="round"/>
<path d="M23.8086 19.1135V33.1123" stroke="white" stroke-width="1.5" stroke-linecap="round" stroke-linejoin="round"/>
<path d="M20.0677 19.1137H15.6543C15.6543 16.8617 17.4817 15.0391 19.7289 15.0391C21.9762 15.0391 23.8036 16.8664 23.8036 19.1137" stroke="white" stroke-width="1.5" stroke-linecap="round" stroke-linejoin="round"/>
<path d="M51.8819 52.8413C51.8819 55.0933 53.7092 56.9159 55.9565 56.9159H48.542" stroke="white" stroke-width="1.5" stroke-linecap="round" stroke-linejoin="round"/>
<path d="M46.7144 20.0154H39.9727" stroke="white" stroke-width="1.5" stroke-linecap="round" stroke-linejoin="round"/>
<path d="M46.7144 23.689H39.9727" stroke="white" stroke-width="1.5" stroke-linecap="round" stroke-linejoin="round"/>
<path d="M46.7144 51.5005H39.9727" stroke="white" stroke-width="1.5" stroke-linecap="round" stroke-linejoin="round"/>
<path d="M46.7148 31.0654H29.1328" stroke="white" stroke-width="1.5" stroke-linecap="round" stroke-linejoin="round"/>
<path d="M46.7153 35.9941H31.7002" stroke="white" stroke-width="1.5" stroke-linecap="round" stroke-linejoin="round"/>
<path d="M46.715 40.894H35.9463" stroke="white" stroke-width="1.5" stroke-linecap="round" stroke-linejoin="round"/>
<path d="M29.1334 26.5137H35.6318V20.0152H29.1334V26.5137Z" stroke="white" stroke-width="1.5" stroke-linecap="round" stroke-linejoin="round"/>
<path d="M23.6801 58.3045C30.6367 58.3045 36.2761 52.665 36.2761 45.7084C36.2761 38.7518 30.6367 33.1123 23.6801 33.1123C16.7234 33.1123 11.084 38.7518 11.084 45.7084C11.084 52.665 16.7234 58.3045 23.6801 58.3045Z" stroke="white" stroke-width="1.5" stroke-linecap="round" stroke-linejoin="round"/>
<path d="M62.5844 12.0046C68.5961 18.4076 72.2843 27.0245 72.2843 36.5002C72.2843 56.2627 56.2625 72.2845 36.5 72.2845" stroke="white" stroke-width="1.5" stroke-linecap="round" stroke-linejoin="round"/>
<path d="M54.2871 5.44409C55.0696 5.89259 55.8378 6.37448 56.5821 6.88024" stroke="white" stroke-width="1.5" stroke-linecap="round" stroke-linejoin="round"/>
<path d="M5.23896 53.8768C2.35713 48.719 0.71582 42.7693 0.71582 36.4379V36.4999C0.71582 16.7374 16.7377 0.715576 36.5001 0.715576" stroke="white" stroke-width="1.5" stroke-linecap="round" stroke-linejoin="round"/>
<path d="M17.6967 66.9118C15.7453 65.7047 13.9226 64.3163 12.2432 62.7656" stroke="white" stroke-width="1.5" stroke-linecap="round" stroke-linejoin="round"/>
<path d="M24.4719 48.49L25.2925 39.8923C24.8106 39.6298 24.2619 39.4819 23.6751 39.4819C23.0882 39.4819 22.5395 39.6298 22.0576 39.8923L22.883 48.49H24.4719V48.49Z" stroke="white" stroke-width="1.5" stroke-linecap="round" stroke-linejoin="round"/>
<path d="M23.6746 52.5264C24.2332 52.5264 24.6861 52.0736 24.6861 51.5149C24.6861 50.9563 24.2332 50.5034 23.6746 50.5034C23.116 50.5034 22.6631 50.9563 22.6631 51.5149C22.6631 52.0736 23.116 52.5264 23.6746 52.5264Z" stroke="white" stroke-width="1.5" stroke-linecap="round" stroke-linejoin="round"/>
</g>
<defs>
<clipPath id="clip0_311_1519">
<rect width="73" height="73" fill="white"/>
</clipPath>
</defs>
</svg>
