<svg width="106" height="106" viewBox="0 0 106 106" fill="none" xmlns="http://www.w3.org/2000/svg">
<g opacity="0.5" clip-path="url(#clip0_139_1135)">
<path d="M75.1596 34.0899V26.4299C75.1596 23.7799 73.0096 21.6299 70.3596 21.6299H28.8496" stroke="white" stroke-width="2" stroke-linecap="round" stroke-linejoin="round"/>
<path d="M75.1597 46.69V44.71" stroke="white" stroke-width="2" stroke-linecap="round" stroke-linejoin="round"/>
<path d="M75.1597 76.0796V51.8096" stroke="white" stroke-width="2" stroke-linecap="round" stroke-linejoin="round"/>
<path d="M48.4897 81.9502H70.3497" stroke="white" stroke-width="2" stroke-linecap="round" stroke-linejoin="round"/>
<path d="M34.7197 27.5V47.66" stroke="white" stroke-width="2" stroke-linecap="round" stroke-linejoin="round"/>
<path d="M29.3297 27.4999H22.9697C22.9697 24.2599 25.5997 21.6299 28.8397 21.6299C32.0797 21.6299 34.7097 24.2599 34.7097 27.4999" stroke="white" stroke-width="2" stroke-linecap="round" stroke-linejoin="round"/>
<path d="M75.1596 76.0801C75.1596 79.3201 77.7896 81.9501 81.0296 81.9501H70.3496" fill="white"/>
<path d="M75.1596 76.0801C75.1596 79.3201 77.7896 81.9501 81.0296 81.9501H70.3496" stroke="white" stroke-width="2" stroke-linecap="round" stroke-linejoin="round"/>
<path d="M67.7198 28.7998H58.0098" stroke="white" stroke-width="2" stroke-linecap="round" stroke-linejoin="round"/>
<path d="M67.7198 34.0898H58.0098" stroke="white" stroke-width="2" stroke-linecap="round" stroke-linejoin="round"/>
<path d="M67.7198 74.1494H58.0098" stroke="white" stroke-width="2" stroke-linecap="round" stroke-linejoin="round"/>
<path d="M67.7197 44.71H42.3896" stroke="white" stroke-width="2" stroke-linecap="round" stroke-linejoin="round"/>
<path d="M67.7198 51.8096H46.0898" stroke="white" stroke-width="2" stroke-linecap="round" stroke-linejoin="round"/>
<path d="M67.7197 58.8701H52.1997" stroke="white" stroke-width="2" stroke-linecap="round" stroke-linejoin="round"/>
<path d="M42.3895 38.1494H51.7495V28.7894H42.3895V38.1494Z" stroke="white" stroke-width="2" stroke-linecap="round" stroke-linejoin="round"/>
<path d="M34.5299 83.9602C44.5539 83.9602 52.6799 75.8341 52.6799 65.8102C52.6799 55.7862 44.5539 47.6602 34.5299 47.6602C24.5059 47.6602 16.3799 55.7862 16.3799 65.8102C16.3799 75.8341 24.5059 83.9602 34.5299 83.9602Z" stroke="white" stroke-width="2" stroke-linecap="round" stroke-linejoin="round"/>
<path d="M90.5798 17.2598C99.2398 26.4798 104.55 38.8898 104.55 52.5398C104.55 81.0098 81.4698 104.08 53.0098 104.08" stroke="white" stroke-width="2" stroke-linecap="round" stroke-linejoin="round"/>
<path d="M78.6196 7.80957C79.7496 8.45957 80.8496 9.14957 81.9296 9.87957" stroke="white" stroke-width="2" stroke-linecap="round" stroke-linejoin="round"/>
<path d="M7.97996 77.57C3.82996 70.14 1.45996 61.57 1.45996 52.45V52.54C1.45996 24.08 24.54 1 53 1" stroke="white" stroke-width="2" stroke-linecap="round" stroke-linejoin="round"/>
<path d="M25.9198 96.3401C23.1098 94.6001 20.4798 92.6001 18.0698 90.3701" stroke="white" stroke-width="2" stroke-linecap="round" stroke-linejoin="round"/>
<path d="M35.6799 69.8999L36.8699 57.4699C36.1799 57.0899 35.3799 56.8799 34.5299 56.8799C33.6799 56.8799 32.8899 57.0899 32.1899 57.4699L33.3799 69.8999H35.6699H35.6799Z" stroke="white" stroke-width="2" stroke-linecap="round" stroke-linejoin="round"/>
<path d="M34.5298 75.7296C35.3362 75.7296 35.9898 75.0759 35.9898 74.2696C35.9898 73.4632 35.3362 72.8096 34.5298 72.8096C33.7235 72.8096 33.0698 73.4632 33.0698 74.2696C33.0698 75.0759 33.7235 75.7296 34.5298 75.7296Z" stroke="white" stroke-width="2" stroke-linecap="round" stroke-linejoin="round"/>
</g>
<defs>
<clipPath id="clip0_139_1135">
<rect width="105.08" height="105.08" fill="white" transform="translate(0.459961)"/>
</clipPath>
</defs>
</svg>
