<svg width="16" height="17" viewBox="0 0 16 17" fill="none" xmlns="http://www.w3.org/2000/svg">
<path d="M3.66211 14.3477H5.24121C5.3916 14.3477 5.51693 14.3978 5.61719 14.498L6.74512 15.6191C7.13249 16.0065 7.50163 16.1979 7.85254 16.1934C8.20801 16.1934 8.58171 16.002 8.97363 15.6191L10.0947 14.498C10.1995 14.3978 10.3249 14.3477 10.4707 14.3477H12.0566C12.6035 14.3477 13.0046 14.2201 13.2598 13.9648C13.515 13.7142 13.6426 13.3132 13.6426 12.7617V11.1758C13.6426 11.0299 13.6927 10.9069 13.793 10.8066L14.9072 9.67871C15.2992 9.29134 15.4928 8.91992 15.4883 8.56445C15.4883 8.20898 15.2946 7.83529 14.9072 7.44336L13.793 6.32227C13.6927 6.21745 13.6426 6.0944 13.6426 5.95312V4.36035C13.6426 3.81803 13.515 3.41927 13.2598 3.16406C13.0091 2.9043 12.6081 2.77441 12.0566 2.77441H10.4707C10.3249 2.77441 10.1995 2.72656 10.0947 2.63086L8.97363 1.50977C8.58171 1.1224 8.20801 0.928711 7.85254 0.928711C7.50163 0.924154 7.13021 1.11784 6.73828 1.50977L5.61719 2.63086C5.51693 2.72656 5.3916 2.77441 5.24121 2.77441H3.66211C3.11068 2.77441 2.70736 2.90202 2.45215 3.15723C2.2015 3.40788 2.07617 3.80892 2.07617 4.36035V5.95312C2.07617 6.0944 2.02604 6.21745 1.92578 6.32227L0.804688 7.44336C0.417318 7.83529 0.223633 8.20898 0.223633 8.56445C0.223633 8.91992 0.417318 9.29134 0.804688 9.67871L1.92578 10.8066C2.02604 10.9069 2.07617 11.0299 2.07617 11.1758V12.7617C2.07617 13.3086 2.2015 13.7096 2.45215 13.9648C2.70736 14.2201 3.11068 14.3477 3.66211 14.3477ZM3.66211 13.5137C3.3431 13.5137 3.13574 13.4681 3.04004 13.377C2.94889 13.2812 2.90332 13.0762 2.90332 12.7617V10.8887C2.90332 10.7018 2.83724 10.5423 2.70508 10.4102L1.39258 9.09766C1.16927 8.86979 1.05762 8.69206 1.05762 8.56445C1.05762 8.43685 1.16927 8.25911 1.39258 8.03125L2.70508 6.71875C2.83724 6.58659 2.90332 6.4248 2.90332 6.2334V4.36035C2.90332 4.0459 2.94889 3.8431 3.04004 3.75195C3.13118 3.65625 3.33854 3.6084 3.66211 3.6084H5.52832C5.72428 3.6084 5.88607 3.54232 6.01367 3.41016L7.32617 2.09766C7.54948 1.87435 7.72493 1.7627 7.85254 1.7627C7.9847 1.7627 8.16243 1.87435 8.38574 2.09766L9.70508 3.41016C9.83268 3.54232 9.99219 3.6084 10.1836 3.6084H12.0566C12.3711 3.6084 12.5739 3.65625 12.665 3.75195C12.7607 3.84766 12.8086 4.05046 12.8086 4.36035V6.2334C12.8086 6.4248 12.877 6.58659 13.0137 6.71875L14.3262 8.03125C14.5495 8.25911 14.6611 8.43685 14.6611 8.56445C14.6611 8.69206 14.5495 8.86979 14.3262 9.09766L13.0137 10.4102C12.877 10.5423 12.8086 10.7018 12.8086 10.8887V12.7617C12.8086 13.0762 12.7607 13.2812 12.665 13.377C12.5739 13.4681 12.3711 13.5137 12.0566 13.5137H10.1836C9.99219 13.5137 9.83268 13.582 9.70508 13.7188L8.38574 15.0312C8.16243 15.2546 7.9847 15.3662 7.85254 15.3662C7.72493 15.3662 7.54948 15.2546 7.32617 15.0312L6.01367 13.7188C5.88607 13.582 5.72428 13.5137 5.52832 13.5137H3.66211ZM5.47363 11.3877C5.60124 11.3877 5.70833 11.3398 5.79492 11.2441L7.85938 9.17285L9.9375 11.2441C10.0286 11.3398 10.1335 11.3877 10.252 11.3877C10.3704 11.3877 10.4707 11.3467 10.5527 11.2646C10.6348 11.1781 10.6758 11.0755 10.6758 10.957C10.6758 10.8385 10.6325 10.736 10.5459 10.6494L8.46777 8.57129L10.5527 6.48633C10.6393 6.39974 10.6826 6.2972 10.6826 6.17871C10.6826 6.06022 10.6416 5.95996 10.5596 5.87793C10.4775 5.7959 10.375 5.75488 10.252 5.75488C10.1426 5.75488 10.0423 5.80273 9.95117 5.89844L7.85938 7.97656L5.78809 5.89844C5.7015 5.81185 5.59668 5.76855 5.47363 5.76855C5.3597 5.76855 5.25944 5.80957 5.17285 5.8916C5.09082 5.96908 5.0498 6.06706 5.0498 6.18555C5.0498 6.30404 5.0931 6.4043 5.17969 6.48633L7.25781 8.57129L5.17969 10.6562C5.0931 10.7383 5.0498 10.8385 5.0498 10.957C5.0498 11.0755 5.09082 11.1781 5.17285 11.2646C5.25944 11.3467 5.3597 11.3877 5.47363 11.3877Z" fill="#FF3B30"/>
</svg>
