<svg width="25" height="24" viewBox="0 0 25 24" fill="none" xmlns="http://www.w3.org/2000/svg">
<path d="M10.7216 10.0684C10.0376 10.0684 9.49756 10.6684 9.49756 11.4004C9.49756 12.1324 10.0496 12.7324 10.7216 12.7324C11.4056 12.7324 11.9456 12.1324 11.9456 11.4004C11.9576 10.6684 11.4056 10.0684 10.7216 10.0684ZM15.1016 10.0684C14.4176 10.0684 13.8776 10.6684 13.8776 11.4004C13.8776 12.1324 14.4296 12.7324 15.1016 12.7324C15.7856 12.7324 16.3256 12.1324 16.3256 11.4004C16.3256 10.6684 15.7856 10.0684 15.1016 10.0684Z" fill="white"/>
<path d="M20.934 0H4.85404C3.49804 0 2.39404 1.104 2.39404 2.472V18.696C2.39404 20.064 3.49804 21.168 4.85404 21.168H18.462L17.826 18.948L19.362 20.376L20.814 21.72L23.394 24V2.472C23.394 1.104 22.29 0 20.934 0ZM16.302 15.672C16.302 15.672 15.87 15.156 15.51 14.7C17.082 14.256 17.682 13.272 17.682 13.272C17.19 13.596 16.722 13.824 16.302 13.98C15.702 14.232 15.126 14.4 14.562 14.496C13.41 14.712 12.354 14.652 11.454 14.484C10.77 14.352 10.182 14.16 9.69004 13.968C9.41404 13.86 9.11404 13.728 8.81404 13.56C8.77804 13.536 8.74204 13.524 8.70604 13.5C8.68204 13.488 8.67004 13.476 8.65804 13.464C8.44204 13.344 8.32204 13.26 8.32204 13.26C8.32204 13.26 8.89804 14.22 10.422 14.676C10.062 15.132 9.61804 15.672 9.61804 15.672C6.96604 15.588 5.95804 13.848 5.95804 13.848C5.95804 9.984 7.68604 6.852 7.68604 6.852C9.41404 5.556 11.058 5.592 11.058 5.592L11.178 5.736C9.01804 6.36 8.02204 7.308 8.02204 7.308C8.02204 7.308 8.28604 7.164 8.73004 6.96C10.014 6.396 11.034 6.24 11.454 6.204C11.526 6.192 11.586 6.18 11.658 6.18C12.39 6.084 13.218 6.06 14.082 6.156C15.222 6.288 16.446 6.624 17.694 7.308C17.694 7.308 16.746 6.408 14.706 5.784L14.874 5.592C14.874 5.592 16.518 5.556 18.246 6.852C18.246 6.852 19.974 9.984 19.974 13.848C19.974 13.848 18.954 15.588 16.302 15.672Z" fill="white"/>
</svg>
