<svg width="17" height="17" viewBox="0 0 17 17" fill="none" xmlns="http://www.w3.org/2000/svg">
<path d="M4.18164 14.3477H5.76074C5.91113 14.3477 6.03646 14.3978 6.13672 14.498L7.26465 15.6191C7.65202 16.0065 8.02116 16.1979 8.37207 16.1934C8.72754 16.1934 9.10124 16.002 9.49316 15.6191L10.6143 14.498C10.7191 14.3978 10.8444 14.3477 10.9902 14.3477H12.5762C13.123 14.3477 13.5241 14.2201 13.7793 13.9648C14.0345 13.7142 14.1621 13.3132 14.1621 12.7617V11.1758C14.1621 11.0299 14.2122 10.9069 14.3125 10.8066L15.4268 9.67871C15.8187 9.29134 16.0124 8.91992 16.0078 8.56445C16.0078 8.20898 15.8141 7.83529 15.4268 7.44336L14.3125 6.32227C14.2122 6.21745 14.1621 6.0944 14.1621 5.95312V4.36035C14.1621 3.81803 14.0345 3.41927 13.7793 3.16406C13.5286 2.9043 13.1276 2.77441 12.5762 2.77441H10.9902C10.8444 2.77441 10.7191 2.72656 10.6143 2.63086L9.49316 1.50977C9.10124 1.1224 8.72754 0.928711 8.37207 0.928711C8.02116 0.924154 7.64974 1.11784 7.25781 1.50977L6.13672 2.63086C6.03646 2.72656 5.91113 2.77441 5.76074 2.77441H4.18164C3.63021 2.77441 3.22689 2.90202 2.97168 3.15723C2.72103 3.40788 2.5957 3.80892 2.5957 4.36035V5.95312C2.5957 6.0944 2.54557 6.21745 2.44531 6.32227L1.32422 7.44336C0.936849 7.83529 0.743164 8.20898 0.743164 8.56445C0.743164 8.91992 0.936849 9.29134 1.32422 9.67871L2.44531 10.8066C2.54557 10.9069 2.5957 11.0299 2.5957 11.1758V12.7617C2.5957 13.3086 2.72103 13.7096 2.97168 13.9648C3.22689 14.2201 3.63021 14.3477 4.18164 14.3477ZM4.18164 13.5137C3.86263 13.5137 3.65527 13.4681 3.55957 13.377C3.46842 13.2812 3.42285 13.0762 3.42285 12.7617V10.8887C3.42285 10.7018 3.35677 10.5423 3.22461 10.4102L1.91211 9.09766C1.6888 8.86979 1.57715 8.69206 1.57715 8.56445C1.57715 8.43685 1.6888 8.25911 1.91211 8.03125L3.22461 6.71875C3.35677 6.58659 3.42285 6.4248 3.42285 6.2334V4.36035C3.42285 4.0459 3.46842 3.8431 3.55957 3.75195C3.65072 3.65625 3.85807 3.6084 4.18164 3.6084H6.04785C6.24382 3.6084 6.4056 3.54232 6.5332 3.41016L7.8457 2.09766C8.06901 1.87435 8.24447 1.7627 8.37207 1.7627C8.50423 1.7627 8.68197 1.87435 8.90527 2.09766L10.2246 3.41016C10.3522 3.54232 10.5117 3.6084 10.7031 3.6084H12.5762C12.8906 3.6084 13.0934 3.65625 13.1846 3.75195C13.2803 3.84766 13.3281 4.05046 13.3281 4.36035V6.2334C13.3281 6.4248 13.3965 6.58659 13.5332 6.71875L14.8457 8.03125C15.069 8.25911 15.1807 8.43685 15.1807 8.56445C15.1807 8.69206 15.069 8.86979 14.8457 9.09766L13.5332 10.4102C13.3965 10.5423 13.3281 10.7018 13.3281 10.8887V12.7617C13.3281 13.0762 13.2803 13.2812 13.1846 13.377C13.0934 13.4681 12.8906 13.5137 12.5762 13.5137H10.7031C10.5117 13.5137 10.3522 13.582 10.2246 13.7188L8.90527 15.0312C8.68197 15.2546 8.50423 15.3662 8.37207 15.3662C8.24447 15.3662 8.06901 15.2546 7.8457 15.0312L6.5332 13.7188C6.4056 13.582 6.24382 13.5137 6.04785 13.5137H4.18164Z" fill="#FF9500"/>
</svg>
