<svg width="102" height="102" viewBox="0 0 102 102" fill="none" xmlns="http://www.w3.org/2000/svg">
<g clip-path="url(#clip0_139_951)">
<path d="M55.7549 59.4403V59.1003M55.7549 63.7603V73.1603C55.7549 74.1503 55.3749 74.9903 54.6349 75.6903C53.8849 76.3903 52.9749 76.7203 51.8949 76.7203C50.8149 76.7203 49.9149 76.3803 49.2149 75.6903C48.5249 74.9903 48.1849 74.1603 48.1849 73.1603V34.5803L41.6549 38.5203C41.1149 38.8703 40.4849 39.0403 39.8049 39.0403C38.8149 39.0403 37.9749 38.6503 37.2749 37.8803C36.5749 37.1103 36.2349 36.2803 36.2349 35.3903C36.2349 34.8003 36.4049 34.2303 36.7549 33.6803C37.1049 33.1403 37.5449 32.7003 38.0949 32.3503L49.8149 25.3003C50.5049 24.9503 51.3749 24.7803 52.4049 24.7803C53.3949 24.8303 54.2049 25.1903 54.8149 25.8503C55.4249 26.5303 55.7449 27.3503 55.7449 28.3403V54.7703" stroke="white" stroke-width="2" stroke-linecap="round" stroke-linejoin="round"/>
<path d="M86.2149 15.5798C105.535 34.8998 105.535 66.6898 86.2149 86.0098C66.8949 105.33 35.1049 105.33 15.7849 86.0098C-3.53508 66.6898 -3.53508 34.8998 15.7849 15.5798C28.2949 3.06982 46.5649 -1.87018 63.6749 2.63982" stroke="white" stroke-width="2" stroke-linecap="round" stroke-linejoin="round"/>
<path d="M73.7749 6.50977C74.8349 7.04977 75.8749 7.63977 76.8849 8.24977C77.4049 8.55977 77.9149 8.88977 78.4149 9.21977" stroke="white" stroke-width="2" stroke-linecap="round" stroke-linejoin="round"/>
</g>
<defs>
<clipPath id="clip0_139_951">
<rect width="101.41" height="101.5" fill="white" transform="translate(0.294922)"/>
</clipPath>
</defs>
</svg>