<svg width="17" height="17" viewBox="0 0 17 17" fill="none" xmlns="http://www.w3.org/2000/svg">
<path d="M4.18164 14.3271H5.76074C5.91113 14.3271 6.03646 14.3773 6.13672 14.4775L7.26465 15.5986C7.65202 15.986 8.02116 16.1774 8.37207 16.1729C8.72754 16.1729 9.10124 15.9814 9.49316 15.5986L10.6143 14.4775C10.7191 14.3773 10.8444 14.3271 10.9902 14.3271H12.5762C13.123 14.3271 13.5241 14.1995 13.7793 13.9443C14.0345 13.6937 14.1621 13.2926 14.1621 12.7412V11.1553C14.1621 11.0094 14.2122 10.8864 14.3125 10.7861L15.4268 9.6582C15.8187 9.27083 16.0124 8.89941 16.0078 8.54395C16.0078 8.18848 15.8141 7.81478 15.4268 7.42285L14.3125 6.30176C14.2122 6.19694 14.1621 6.07389 14.1621 5.93262V4.33984C14.1621 3.79753 14.0345 3.39876 13.7793 3.14355C13.5286 2.88379 13.1276 2.75391 12.5762 2.75391H10.9902C10.8444 2.75391 10.7191 2.70605 10.6143 2.61035L9.49316 1.48926C9.10124 1.10189 8.72754 0.908203 8.37207 0.908203C8.02116 0.903646 7.64974 1.09733 7.25781 1.48926L6.13672 2.61035C6.03646 2.70605 5.91113 2.75391 5.76074 2.75391H4.18164C3.63021 2.75391 3.22689 2.88151 2.97168 3.13672C2.72103 3.38737 2.5957 3.78841 2.5957 4.33984V5.93262C2.5957 6.07389 2.54557 6.19694 2.44531 6.30176L1.32422 7.42285C0.936849 7.81478 0.743164 8.18848 0.743164 8.54395C0.743164 8.89941 0.936849 9.27083 1.32422 9.6582L2.44531 10.7861C2.54557 10.8864 2.5957 11.0094 2.5957 11.1553V12.7412C2.5957 13.2881 2.72103 13.6891 2.97168 13.9443C3.22689 14.1995 3.63021 14.3271 4.18164 14.3271ZM4.18164 13.4932C3.86263 13.4932 3.65527 13.4476 3.55957 13.3564C3.46842 13.2607 3.42285 13.0557 3.42285 12.7412V10.8682C3.42285 10.6813 3.35677 10.5218 3.22461 10.3896L1.91211 9.07715C1.6888 8.84928 1.57715 8.67155 1.57715 8.54395C1.57715 8.41634 1.6888 8.23861 1.91211 8.01074L3.22461 6.69824C3.35677 6.56608 3.42285 6.4043 3.42285 6.21289V4.33984C3.42285 4.02539 3.46842 3.82259 3.55957 3.73145C3.65072 3.63574 3.85807 3.58789 4.18164 3.58789H6.04785C6.24382 3.58789 6.4056 3.52181 6.5332 3.38965L7.8457 2.07715C8.06901 1.85384 8.24447 1.74219 8.37207 1.74219C8.50423 1.74219 8.68197 1.85384 8.90527 2.07715L10.2246 3.38965C10.3522 3.52181 10.5117 3.58789 10.7031 3.58789H12.5762C12.8906 3.58789 13.0934 3.63574 13.1846 3.73145C13.2803 3.82715 13.3281 4.02995 13.3281 4.33984V6.21289C13.3281 6.4043 13.3965 6.56608 13.5332 6.69824L14.8457 8.01074C15.069 8.23861 15.1807 8.41634 15.1807 8.54395C15.1807 8.67155 15.069 8.84928 14.8457 9.07715L13.5332 10.3896C13.3965 10.5218 13.3281 10.6813 13.3281 10.8682V12.7412C13.3281 13.0557 13.2803 13.2607 13.1846 13.3564C13.0934 13.4476 12.8906 13.4932 12.5762 13.4932H10.7031C10.5117 13.4932 10.3522 13.5615 10.2246 13.6982L8.90527 15.0107C8.68197 15.234 8.50423 15.3457 8.37207 15.3457C8.24447 15.3457 8.06901 15.234 7.8457 15.0107L6.5332 13.6982C6.4056 13.5615 6.24382 13.4932 6.04785 13.4932H4.18164ZM7.64062 11.7842C7.8138 11.7842 7.95508 11.7044 8.06445 11.5449L11.3867 6.34961C11.4186 6.29948 11.446 6.24707 11.4688 6.19238C11.4961 6.13314 11.5098 6.07617 11.5098 6.02148C11.5098 5.90755 11.4665 5.81413 11.3799 5.74121C11.2933 5.66829 11.1953 5.63184 11.0859 5.63184C10.9401 5.63184 10.8171 5.70931 10.7168 5.86426L7.62012 10.7588L6.04102 8.81055C5.98177 8.73307 5.92025 8.68066 5.85645 8.65332C5.7972 8.62142 5.72884 8.60547 5.65137 8.60547C5.54199 8.60547 5.44629 8.64648 5.36426 8.72852C5.28678 8.81055 5.24805 8.90853 5.24805 9.02246C5.24805 9.12728 5.28906 9.23665 5.37109 9.35059L7.20312 11.5449C7.26693 11.627 7.33301 11.6885 7.40137 11.7295C7.47428 11.766 7.55404 11.7842 7.64062 11.7842Z" fill="#34C759"/>
</svg>
