<svg width="25" height="24" viewBox="0 0 25 24" fill="none" xmlns="http://www.w3.org/2000/svg">
<g clip-path="url(#clip0_278_837)">
<path fill-rule="evenodd" clip-rule="evenodd" d="M24.1665 12C24.1665 18.6274 18.7939 24 12.1665 24C5.53909 24 0.166504 18.6274 0.166504 12C0.166504 5.37258 5.53909 0 12.1665 0C18.7939 0 24.1665 5.37258 24.1665 12ZM12.5967 8.85893C11.4295 9.3444 9.09676 10.3492 5.59852 11.8733C5.03046 12.0992 4.73288 12.3202 4.70579 12.5363C4.66001 12.9015 5.11734 13.0453 5.7401 13.2411C5.82481 13.2678 5.91258 13.2954 6.00256 13.3246C6.61526 13.5238 7.43945 13.7568 7.86791 13.766C8.25657 13.7744 8.69035 13.6142 9.16927 13.2853C12.4378 11.079 14.125 9.96381 14.2309 9.93977C14.3057 9.92281 14.4092 9.90148 14.4794 9.96385C14.5496 10.0262 14.5427 10.1443 14.5352 10.176C14.4899 10.3691 12.6947 12.0381 11.7657 12.9018C11.4761 13.171 11.2707 13.362 11.2287 13.4056C11.1346 13.5033 11.0388 13.5958 10.9466 13.6846C10.3774 14.2333 9.95054 14.6448 10.9702 15.3168C11.4603 15.6397 11.8524 15.9067 12.2436 16.1731C12.6708 16.4641 13.0969 16.7543 13.6482 17.1157C13.7887 17.2077 13.9228 17.3034 14.0535 17.3965C14.5507 17.751 14.9974 18.0694 15.5492 18.0186C15.8699 17.9891 16.2011 17.6876 16.3693 16.7884C16.7668 14.6631 17.5483 10.0585 17.7288 8.16097C17.7447 7.99473 17.7248 7.78197 17.7088 7.68857C17.6928 7.59518 17.6594 7.46211 17.538 7.3636C17.3942 7.24694 17.1723 7.22234 17.073 7.22408C16.6216 7.23203 15.9292 7.47282 12.5967 8.85893Z" fill="white"/>
</g>
<defs>
<clipPath id="clip0_278_837">
<rect width="24" height="24" fill="white" transform="translate(0.166504)"/>
</clipPath>
</defs>
</svg>
