<svg width="102" height="102" viewBox="0 0 102 102" fill="none" xmlns="http://www.w3.org/2000/svg">
<g clip-path="url(#clip0_139_987)">
<path d="M65.6647 68.83C65.6147 68.92 65.5647 69 65.5147 69.08C63.9247 71.69 61.7247 73.69 58.9247 75.1C56.1147 76.5 52.9047 77.2 49.2747 77.2C47.3447 77.2 45.4647 76.93 43.6547 76.4C41.8447 75.87 40.2847 75.1 38.9747 74.08C37.6747 73.36 37.0247 72.37 37.0247 71.11C37.0247 70.19 37.3447 69.34 37.9947 68.57C38.6547 67.8 39.4347 67.41 40.3547 67.41C41.2247 67.41 42.0947 67.72 42.9647 68.35C44.9447 70.19 47.4347 71.11 50.4347 71.11C52.3247 71.11 54.0747 70.67 55.6947 69.8C57.3147 68.93 58.6047 67.69 59.5747 66.07C60.5347 64.45 61.0247 62.58 61.0247 60.45C61.0247 57.31 60.0547 54.89 58.1247 53.2C56.1847 51.5 53.8647 50.66 51.1647 50.66C50.3847 50.66 49.2747 50.83 47.8247 51.17C46.7647 51.46 45.9647 51.6 45.4347 51.6C44.5647 51.6 43.8647 51.3 43.3247 50.69C42.7947 50.09 42.5347 49.33 42.5347 48.41C42.5347 47.88 42.6247 47.42 42.8247 47.03C43.0147 46.65 43.3247 46.19 43.7647 45.65L56.0947 32.09H39.3447C38.4247 32.09 37.6447 31.78 37.0247 31.15C36.3947 30.52 36.0747 29.75 36.0747 28.83C36.0747 27.91 36.3947 27.16 37.0247 26.58C37.6447 26 38.4247 25.71 39.3447 25.71H62.4747C63.5847 25.71 64.4547 26.05 65.0847 26.73C65.7147 27.4 66.0247 28.23 66.0247 29.19C66.0247 30.06 65.5647 30.96 64.6447 31.88L53.4047 44.35C56.1647 44.35 58.6447 45.04 60.8447 46.42C63.0447 47.79 64.7647 49.67 66.0247 52.04C67.2847 54.4 67.9147 57.06 67.9147 60.01C67.9147 60.41 67.9047 60.8 67.8747 61.19M67.2847 64.95C67.2547 65.08 67.2147 65.21 67.1647 65.33" stroke="white" stroke-width="2" stroke-linecap="round" stroke-linejoin="round"/>
<path d="M86.2149 15.5798C105.535 34.8998 105.535 66.6898 86.2149 86.0098C66.8949 105.33 35.1049 105.33 15.7849 86.0098C-3.53508 66.6898 -3.53508 34.8998 15.7849 15.5798C28.2949 3.06982 46.5649 -1.87018 63.6749 2.63982" stroke="white" stroke-width="2" stroke-linecap="round" stroke-linejoin="round"/>
<path d="M73.7749 6.50977C74.8349 7.04977 75.8749 7.63977 76.8849 8.24977C77.4049 8.55977 77.9149 8.88977 78.4149 9.21977" stroke="white" stroke-width="2" stroke-linecap="round" stroke-linejoin="round"/>
</g>
<defs>
<clipPath id="clip0_139_987">
<rect width="101.41" height="101.5" fill="white" transform="translate(0.294922)"/>
</clipPath>
</defs>
</svg>
