<svg width="108" height="106" viewBox="0 0 108 106" fill="none" xmlns="http://www.w3.org/2000/svg">
<g opacity="0.5" clip-path="url(#clip0_139_1111)">
<path d="M92.5951 17.2598C101.255 26.4798 106.565 38.8898 106.565 52.5398C106.565 81.0098 83.4851 104.08 55.0251 104.08" stroke="white" stroke-width="2" stroke-linecap="round" stroke-linejoin="round"/>
<path d="M80.645 7.80957C81.775 8.45957 82.875 9.14957 83.955 9.87957" stroke="white" stroke-width="2" stroke-linecap="round" stroke-linejoin="round"/>
<path d="M3.4751 52.54C3.4751 24.08 26.5551 1 55.0251 1" stroke="white" stroke-width="2" stroke-linecap="round" stroke-linejoin="round"/>
<path d="M71.885 33.5303H74.655C77.615 33.5303 80.015 35.9203 80.015 38.8903V47.6803" stroke="white" stroke-width="2" stroke-linecap="round" stroke-linejoin="round"/>
<path d="M80.025 65.2998V66.5598C80.025 69.5198 77.625 71.9198 74.665 71.9198H53.415" stroke="white" stroke-width="2" stroke-linecap="round" stroke-linejoin="round"/>
<path d="M30.325 48.6803V38.8903C30.325 35.9203 32.715 33.5303 35.685 33.5303H44.985" stroke="white" stroke-width="2" stroke-linecap="round" stroke-linejoin="round"/>
<path d="M72.9849 60.0902H79.6849C81.5949 60.0902 83.1449 58.5402 83.1449 56.6302V51.1202C83.1449 49.2102 81.5949 47.6602 79.6849 47.6602H67.2749C63.8449 47.6602 61.0649 50.4402 61.0649 53.8702C61.0649 57.3002 63.8449 60.0802 67.2749 60.0802" stroke="white" stroke-width="2" stroke-linecap="round" stroke-linejoin="round"/>
<path d="M80.015 41.4102H72.755H42.585H36.425" stroke="white" stroke-width="2" stroke-linecap="round" stroke-linejoin="round"/>
<path d="M40.665 41.4098L65.315 26.8198C66.375 26.1898 67.745 26.5398 68.385 27.6098L76.555 41.4198" stroke="white" stroke-width="2" stroke-linecap="round" stroke-linejoin="round"/>
<path d="M67.3749 55.7298C68.4021 55.7298 69.2349 54.897 69.2349 53.8698C69.2349 52.8425 68.4021 52.0098 67.3749 52.0098C66.3476 52.0098 65.5149 52.8425 65.5149 53.8698C65.5149 54.897 66.3476 55.7298 67.3749 55.7298Z" stroke="white" stroke-width="2" stroke-linecap="round" stroke-linejoin="round"/>
<path d="M14.0487 81.4257L2.07738 93.397C1.22604 94.2483 1.22604 95.6286 2.07738 96.48L6.74429 101.147C7.59563 101.998 8.97593 101.998 9.82727 101.147L21.7986 89.1756C22.6499 88.3242 22.6499 86.9439 21.7986 86.0926L17.1317 81.4257C16.2803 80.5743 14.9 80.5743 14.0487 81.4257Z" stroke="white" stroke-width="2" stroke-linecap="round" stroke-linejoin="round"/>
<path d="M22.435 77.4234L17.7822 82.0762L21.141 85.4349L25.7937 80.7822L22.435 77.4234Z" stroke="white" stroke-width="2" stroke-linecap="round" stroke-linejoin="round"/>
<path d="M13.095 92.7199L18.185 87.6299" stroke="white" stroke-width="2" stroke-linecap="round" stroke-linejoin="round"/>
<path d="M36.325 83.9602C46.349 83.9602 54.4751 75.8341 54.4751 65.8102C54.4751 55.7862 46.349 47.6602 36.325 47.6602C26.3011 47.6602 18.175 55.7862 18.175 65.8102C18.175 75.8341 26.3011 83.9602 36.325 83.9602Z" stroke="white" stroke-width="2" stroke-linecap="round" stroke-linejoin="round"/>
<path d="M38.175 53.9297C39.035 54.0597 39.865 54.2897 40.645 54.5897" stroke="white" stroke-width="2" stroke-linecap="round" stroke-linejoin="round"/>
<path d="M46.3652 59.2002C47.6152 61.0902 48.3452 63.3602 48.3452 65.8002C48.3452 72.4402 42.9652 77.8202 36.3252 77.8202" stroke="white" stroke-width="2" stroke-linecap="round" stroke-linejoin="round"/>
</g>
<defs>
<clipPath id="clip0_139_1111">
<rect width="107.13" height="105.08" fill="white" transform="translate(0.435059)"/>
</clipPath>
</defs>
</svg>
