<svg width="102" height="102" viewBox="0 0 102 102" fill="none" xmlns="http://www.w3.org/2000/svg">
<g clip-path="url(#clip0_139_969)">
<path d="M58.1147 25.6602C57.9847 25.5902 57.8447 25.5202 57.7047 25.4602M61.2047 27.7302C62.3747 28.7402 63.3447 29.9402 64.1247 31.3102C65.4047 33.5802 66.0547 36.1902 66.0547 39.1402C66.0547 44.7002 63.0547 50.7002 57.0547 57.1302L46.1047 69.0902H64.1647C65.0847 69.0902 65.8547 69.4102 66.4847 70.0402C67.1147 70.6602 67.4247 71.4402 67.4247 72.3602C67.4247 73.2802 67.1147 74.0202 66.4847 74.6002C65.8547 75.1802 65.0847 75.4702 64.1647 75.4702H38.4247C37.4547 75.4702 36.6547 75.1702 36.0247 74.5702C35.4047 73.9602 35.0847 73.1502 35.0847 72.1402C35.0847 71.2702 35.4247 70.4502 36.1047 69.6702L52.2747 52.1202C56.7647 47.3402 59.0147 43.1102 59.0147 39.4302C59.0147 36.8202 58.1547 34.6602 56.4447 32.9402C54.7247 31.2302 52.5347 30.3702 49.8747 30.3702C48.0947 30.3702 46.3747 30.8802 44.7347 31.8902C43.0847 32.9102 41.7547 34.3602 40.7447 36.2402C39.9647 37.2602 39.0447 37.7602 37.9847 37.7602C37.1647 37.7602 36.3947 37.4502 35.6647 36.8202C34.9447 36.1902 34.5747 35.4702 34.5747 34.6502C34.5747 34.1202 34.7547 33.5602 35.1247 32.9802C35.4847 32.4002 36.0047 31.7202 36.6847 30.9502C38.2747 28.8202 40.3047 27.1302 42.7747 25.8702C45.2347 24.6202 47.7247 23.9902 50.2447 23.9902C51.5947 23.9902 52.8747 24.1002 54.0647 24.3302" stroke="white" stroke-width="2" stroke-linecap="round" stroke-linejoin="round"/>
<path d="M86.2149 15.5798C105.535 34.8998 105.535 66.6898 86.2149 86.0098C66.8949 105.33 35.1049 105.33 15.7849 86.0098C-3.53508 66.6898 -3.53508 34.8998 15.7849 15.5798C28.2949 3.06982 46.5649 -1.87018 63.6749 2.63982" stroke="white" stroke-width="2" stroke-linecap="round" stroke-linejoin="round"/>
<path d="M73.7749 6.50977C74.8349 7.04977 75.8749 7.63977 76.8849 8.24977C77.4049 8.55977 77.9149 8.88977 78.4149 9.21977" stroke="white" stroke-width="2" stroke-linecap="round" stroke-linejoin="round"/>
</g>
<defs>
<clipPath id="clip0_139_969">
<rect width="101.41" height="101.5" fill="white" transform="translate(0.294922)"/>
</clipPath>
</defs>
</svg>
