<svg width="73" height="73" viewBox="0 0 73 73" fill="none" xmlns="http://www.w3.org/2000/svg">
<g clip-path="url(#clip0_294_2185)">
<path d="M48.2129 23.2981H50.1357C52.1921 23.2981 53.8573 24.9585 53.8573 27.0197V33.1269" stroke="white" stroke-width="1.5" stroke-linecap="round" stroke-linejoin="round"/>
<path d="M19.3525 45.3555V46.2286C19.3525 48.285 21.0177 49.9502 23.0741 49.9502H37.8268H35.3839H50.1366C52.193 49.9502 53.8582 48.285 53.8582 46.2286V45.3555" stroke="white" stroke-width="1.5" stroke-linecap="round" stroke-linejoin="round"/>
<path d="M19.3525 38.0174V27.0197C19.3525 24.9585 21.0129 23.2981 23.0741 23.2981H29.5296" stroke="white" stroke-width="1.5" stroke-linecap="round" stroke-linejoin="round"/>
<path d="M48.9763 41.7388H53.6235C54.9499 41.7388 56.0235 40.6653 56.0235 39.3389V35.5171C56.0235 34.1907 54.9499 33.1172 53.6235 33.1172H45.0114C42.6306 33.1172 40.6982 35.0495 40.6982 37.4304C40.6982 39.8112 42.6306 41.7436 45.0114 41.7436" stroke="white" stroke-width="1.5" stroke-linecap="round" stroke-linejoin="round"/>
<path d="M53.8527 28.7705H48.8143H27.8686H23.584" stroke="white" stroke-width="1.5" stroke-linecap="round" stroke-linejoin="round"/>
<path d="M26.5332 28.7705L43.6476 18.6364C44.3872 18.2022 45.3367 18.4455 45.7804 19.1803L51.4534 28.7657" stroke="white" stroke-width="1.5" stroke-linecap="round" stroke-linejoin="round"/>
<path d="M45.0733 38.7188C45.7874 38.7188 46.3663 38.1399 46.3663 37.4258C46.3663 36.7117 45.7874 36.1328 45.0733 36.1328C44.3592 36.1328 43.7803 36.7117 43.7803 37.4258C43.7803 38.1399 44.3592 38.7188 45.0733 38.7188Z" stroke="white" stroke-width="1.5" stroke-linecap="round" stroke-linejoin="round"/>
<path d="M62.5844 12.0046C68.5961 18.4076 72.2843 27.0245 72.2843 36.5002C72.2843 56.2627 56.2625 72.2845 36.5 72.2845" stroke="white" stroke-width="1.5" stroke-linecap="round" stroke-linejoin="round"/>
<path d="M54.2881 5.44409C55.0706 5.89259 55.8387 6.37448 56.5831 6.88024" stroke="white" stroke-width="1.5" stroke-linecap="round" stroke-linejoin="round"/>
<path d="M5.23896 53.877C2.35713 48.7193 0.71582 42.7696 0.71582 36.4381V36.5001C0.71582 16.7377 16.7377 0.71582 36.5001 0.71582" stroke="white" stroke-width="1.5" stroke-linecap="round" stroke-linejoin="round"/>
<path d="M17.6957 66.9118C15.7443 65.7047 13.9217 64.3163 12.2422 62.7656" stroke="white" stroke-width="1.5" stroke-linecap="round" stroke-linejoin="round"/>
<path d="M23.584 33.6135V44.9405" stroke="white" stroke-width="1.5" stroke-linecap="round" stroke-linejoin="round"/>
</g>
<defs>
<clipPath id="clip0_294_2185">
<rect width="73" height="73" fill="white"/>
</clipPath>
</defs>
</svg>
